<svg width="294" height="24" viewBox="0 0 294 24" fill="none" xmlns="http://www.w3.org/2000/svg">
<rect width="154" height="24" rx="5" fill="#545454"/>
<path d="M32.996 11.274H37.868V12.772H32.996V11.274ZM33.136 15.474H38.666V17H31.316V7.2H38.47V8.726H33.136V15.474ZM39.3955 17L43.5255 11.316V12.688L39.5915 7.2H41.6495L44.5755 11.26L43.7355 11.274L46.6335 7.2H48.6075L44.7015 12.59V11.274L48.8595 17H46.7595L43.6795 12.688H44.5055L41.4675 17H39.3955ZM49.9644 17V7.2H53.9964C54.8644 7.2 55.6064 7.34 56.2224 7.62C56.8478 7.9 57.3284 8.30133 57.6644 8.824C58.0004 9.34667 58.1684 9.96733 58.1684 10.686C58.1684 11.4047 58.0004 12.0253 57.6644 12.548C57.3284 13.0707 56.8478 13.472 56.2224 13.752C55.6064 14.032 54.8644 14.172 53.9964 14.172H50.9724L51.7844 13.318V17H49.9644ZM51.7844 13.514L50.9724 12.632H53.9124C54.7151 12.632 55.3171 12.464 55.7184 12.128C56.1291 11.7827 56.3344 11.302 56.3344 10.686C56.3344 10.0607 56.1291 9.58 55.7184 9.244C55.3171 8.908 54.7151 8.74 53.9124 8.74H50.9724L51.7844 7.844V13.514ZM61.6659 11.274H66.5379V12.772H61.6659V11.274ZM61.8059 15.474H67.3359V17H59.9859V7.2H67.1399V8.726H61.8059V15.474ZM69.3648 17V7.2H73.3968C74.2648 7.2 75.0068 7.34 75.6228 7.62C76.2482 7.9 76.7288 8.30133 77.0648 8.824C77.4008 9.34667 77.5688 9.96733 77.5688 10.686C77.5688 11.4047 77.4008 12.0253 77.0648 12.548C76.7288 13.0613 76.2482 13.458 75.6228 13.738C75.0068 14.0087 74.2648 14.144 73.3968 14.144H70.3728L71.1848 13.318V17H69.3648ZM75.7768 17L73.2988 13.444H75.2448L77.7368 17H75.7768ZM71.1848 13.514L70.3728 12.646H73.3128C74.1155 12.646 74.7175 12.4733 75.1188 12.128C75.5295 11.7827 75.7348 11.302 75.7348 10.686C75.7348 10.0607 75.5295 9.58 75.1188 9.244C74.7175 8.908 74.1155 8.74 73.3128 8.74H70.3728L71.1848 7.844V13.514ZM79.6051 17V7.2H81.4251V17H79.6051ZM85.7558 11.274H90.6278V12.772H85.7558V11.274ZM85.8958 15.474H91.4258V17H84.0758V7.2H91.2298V8.726H85.8958V15.474ZM93.4547 17V7.2H94.9527L101.099 14.746H100.357V7.2H102.163V17H100.665L94.5187 9.454H95.2607V17H93.4547ZM109.325 17.14C108.578 17.14 107.883 17.0187 107.239 16.776C106.604 16.524 106.049 16.174 105.573 15.726C105.106 15.2687 104.742 14.732 104.481 14.116C104.219 13.5 104.089 12.828 104.089 12.1C104.089 11.372 104.219 10.7 104.481 10.084C104.742 9.468 105.111 8.936 105.587 8.488C106.063 8.03067 106.618 7.68067 107.253 7.438C107.887 7.186 108.583 7.06 109.339 7.06C110.141 7.06 110.874 7.2 111.537 7.48C112.199 7.75067 112.759 8.15667 113.217 8.698L112.041 9.804C111.686 9.42133 111.289 9.13667 110.851 8.95C110.412 8.754 109.936 8.656 109.423 8.656C108.909 8.656 108.438 8.74 108.009 8.908C107.589 9.076 107.22 9.314 106.903 9.622C106.595 9.93 106.352 10.294 106.175 10.714C106.007 11.134 105.923 11.596 105.923 12.1C105.923 12.604 106.007 13.066 106.175 13.486C106.352 13.906 106.595 14.27 106.903 14.578C107.22 14.886 107.589 15.124 108.009 15.292C108.438 15.46 108.909 15.544 109.423 15.544C109.936 15.544 110.412 15.4507 110.851 15.264C111.289 15.068 111.686 14.774 112.041 14.382L113.217 15.502C112.759 16.034 112.199 16.44 111.537 16.72C110.874 17 110.137 17.14 109.325 17.14ZM116.641 11.274H121.513V12.772H116.641V11.274ZM116.781 15.474H122.311V17H114.961V7.2H122.115V8.726H116.781V15.474Z" fill="white"/>
<line x1="153" y1="11.5" x2="294" y2="11.5" stroke="#545454"/>
</svg>
