<svg width="72" height="71" viewBox="0 0 72 71" fill="none" xmlns="http://www.w3.org/2000/svg">
<g filter="url(#filter0_f_22_28)">
<path d="M58.2029 54.6244C56.2245 57.0057 52.4703 57.276 50.0145 58.8369C47.5587 60.3978 45.6054 63.7001 42.7294 64.4352C39.8533 65.1703 36.6474 63.1953 33.8189 63.1756C30.9905 63.1559 27.4222 64.534 24.6417 63.442C21.8612 62.35 20.5442 58.9257 18.1754 56.9577C15.8065 54.9897 12.1625 54.2396 10.6157 51.7894C9.06893 49.3393 9.94126 45.5626 9.19558 42.7188C8.4499 39.8751 5.97283 37.0228 6.16837 34.0607C6.3639 31.0986 9.23137 28.6617 10.3366 25.8729C11.4419 23.0841 10.8428 19.3029 12.8211 16.9217C14.7994 14.5405 18.5537 14.2701 21.0094 12.7092C23.4652 11.1483 25.4185 7.84603 28.2946 7.1109C31.1706 6.37578 34.3766 8.35077 37.3609 8.49995C40.3452 8.64912 43.6017 7.01209 46.5381 8.23356C49.4745 9.45502 50.6356 12.7498 53.0044 14.7178C55.3733 16.6858 59.0172 17.436 60.5641 19.8862C62.1109 22.3363 61.2385 26.113 62.1401 29.0863C63.0416 32.0595 65.3628 34.7823 65.1673 37.7444C64.9717 40.7064 62.1043 43.1433 60.999 45.9322C59.8938 48.721 60.1812 52.2432 58.2029 54.6244Z" stroke="#652D90" stroke-opacity="0.4" stroke-width="4" stroke-linecap="round" stroke-linejoin="round"/>
</g>
<defs>
<filter id="filter0_f_22_28" x="0.157532" y="0.948242" width="71.0213" height="69.65" filterUnits="userSpaceOnUse" color-interpolation-filters="sRGB">
<feFlood flood-opacity="0" result="BackgroundImageFix"/>
<feBlend mode="normal" in="SourceGraphic" in2="BackgroundImageFix" result="shape"/>
<feGaussianBlur stdDeviation="2" result="effect1_foregroundBlur_22_28"/>
</filter>
</defs>
</svg>
