<svg width="780" height="11" viewBox="0 0 780 11" fill="none" xmlns="http://www.w3.org/2000/svg">
<path d="M0.666667 5.5C0.666667 8.44552 3.05448 10.8333 6 10.8333C8.94552 10.8333 11.3333 8.44552 11.3333 5.5C11.3333 2.55448 8.94552 0.166667 6 0.166667C3.05448 0.166667 0.666667 2.55448 0.666667 5.5ZM768.667 5.5C768.667 8.44552 771.055 10.8333 774 10.8333C776.945 10.8333 779.333 8.44552 779.333 5.5C779.333 2.55448 776.945 0.166667 774 0.166667C771.055 0.166667 768.667 2.55448 768.667 5.5ZM6 6.5H774V4.5H6V6.5Z" fill="#767676" fill-opacity="0.4"/>
</svg>
